<svg version="1.2" xmlns="http://www.w3.org/2000/svg" viewBox="0 0 1280 359" width="1280" height="359">
	<title>devoria</title>
	<style>
		.s0 { fill: #242323 } 
		.s1 { fill: #025788 } 
	</style>
	<path id="oria" class="s0" aria-label="oria"  d="m703.8 214.7q12.3 0 17.3-11.8 5.1-11.9 5.1-43.4 0-31.5-5.1-43.2-4.9-11.8-17.3-11.8-12.6 0-17.7 12-5.1 11.8-5.1 43 0 31.3 5.1 43.2 5.1 12 17.7 12zm0 13.9q-31.1 0-48.9-18.4-17.5-18.4-17.5-50.7 0-32.3 17.5-50.5 17.8-18.4 48.9-18.4 31.1 0 48.7 18.4 17.7 18.2 17.7 50.5 0 32.3-17.7 50.7-17.7 18.4-48.7 18.4zm197-135.9v39h-12.5q-0.6-10.4-5.1-15.5-4.4-5.1-12.9-5.1-12.8 0-20.2 12.5-7.4 12.6-7.4 34.8v51.7h21.3v14.9h-77.2v-14.9h16.7v-101h-18v-14.9h57.2v23.3q5.7-13.7 15.2-20.2 9.4-6.7 23.2-6.7 3.5 0 8.4 0.6 4.9 0.5 11.3 1.5zm19-35.5q0-10 6.1-16.8 6.3-6.9 15.3-6.9 8.7 0 14.9 6.9 6.1 6.8 6.1 16.8 0 9.7-6.1 16.6-6.2 6.7-14.9 6.7-9 0-15.3-6.7-6.1-6.8-6.1-16.6zm42.9 37v115.9h16.8v14.9h-72.7v-14.9h16.7v-101h-16.7v-14.9zm147.1 50.5v65.4h16.9v14.9h-56v-16.6q-7.8 10.3-17.4 15.2-9.4 5-21.6 5-18.1 0-27.8-10.7-9.6-10.9-9.6-30.9 0-22 13.9-33 13.9-10.9 41.8-10.9h20.7v-7.8q0-15.9-6.8-23.4-6.8-7.6-20.9-7.6-11.8 0-18.2 5.4-6.3 5.3-9 17.5h-12.6v-28.2q10.6-4.2 21.8-6.3 11.3-2.1 23.9-2.1 31.6 0 46.3 13.1 14.6 13 14.6 41zm-39.1 39.2v-26.2h-14.8q-10.9 0-16.8 6.6-6 6.7-6 19.1 0 12.4 4.4 18.6 4.3 6.1 13 6.1 9.1 0 14.6-6.6 5.6-6.6 5.6-17.6z"/>
	<path id="Dev" class="s1" aria-label="Dev"  d="m216.4 56.2v153.9h15.4q25.9 0 37.9-18.4 12.1-18.5 12.1-58.7 0-40-12.1-58.4-11.9-18.4-37.9-18.4zm21.1 168.8h-84.9v-14.9h21.1v-153.9h-21.1v-14.9h84.9q44.5 0 68 23.6 23.6 23.6 23.6 68.1 0 44.6-23.6 68.4-23.6 23.6-68 23.6zm154.5-73.8h37.9q0-25.9-4.3-36.2-4.3-10.5-14.8-10.5-10 0-14.5 10.2-4.3 10.3-4.3 34.3zm81 14.6h-81v1q0 25.3 6.9 36.7 6.9 11.1 22.2 11.1 12.6 0 20.5-7.5 7.9-7.5 10.1-21.7h18.4q-4.8 22.2-19 32.7-14.2 10.5-39.5 10.5-30.7 0-47-17.9-16.3-18-16.3-51.2 0-32.5 16.6-50.7 16.8-18.2 46.7-18.2 29.1 0 44.8 19.2 15.6 19.1 16.6 56zm92.1 59.2h-31.5l-41.8-115.9h-12.9v-14.9h67.6v14.9h-14.3l29.8 82.7 29.6-82.7h-15.3v-14.9h44.1v14.9h-13.6z"/>
	<path id="Easy Way" class="s1" aria-label="Easy Way"  d="m815.1 309h-43.1v-4.3h6.1v-43.9h-6.1v-4.3h42.5v12.4h-4.4v-7.6h-19.8v16.9h12.3v-6.7h4.4v18.1h-4.4v-6.7h-12.3v21.3h20.4v-7.6h4.4zm38.6-22.9v18.7h4.8v4.2h-16v-4.7q-2.2 2.9-5 4.3-2.7 1.4-6.1 1.4-5.2 0-8-3-2.7-3.1-2.7-8.8 0-6.3 3.9-9.5 4-3.1 12-3.1h5.9v-2.2q0-4.5-1.9-6.7-2-2.2-6-2.2-3.4 0-5.2 1.6-1.8 1.5-2.6 5h-3.6v-8.1q3.1-1.2 6.3-1.8 3.2-0.6 6.8-0.6 9 0 13.2 3.8 4.2 3.7 4.2 11.7zm-11.2 11.2v-7.5h-4.2q-3.1 0-4.8 1.9-1.7 1.9-1.7 5.4 0 3.6 1.2 5.4 1.2 1.7 3.7 1.7 2.6 0 4.2-1.9 1.6-1.9 1.6-5zm20.5 10.6v-10.4h3.6q0.5 4.2 2.8 6.4 2.4 2.2 6.5 2.2 3.4 0 5.2-1.3 1.8-1.4 1.8-3.8 0-2.3-1.1-3.5-1.2-1.2-4.5-2.2l-4.6-1.3q-5.2-1.4-7.6-4.1-2.3-2.7-2.3-7.2 0-6.1 3.8-9.1 3.8-3 11.7-3 3 0 6.3 0.6 3.4 0.5 7.5 1.7v9.4h-3.6q-0.3-3.8-2.4-5.8-2.2-1.9-6.3-1.9-3.4 0-5.1 1.2-1.8 1.2-1.8 3.6 0 1.9 1 2.9 1 1.1 3.7 1.9l4.5 1.3q6.7 1.8 9.2 4.6 2.5 2.7 2.5 7.6 0 6.3-4.1 9.4-4 2.9-12.6 2.9-3.1 0-6.6-0.5-3.5-0.5-7.5-1.6zm69.1-32l-14.9 41.6q-1.5 4.1-3.6 5.8-2.2 1.7-5.8 1.7-1.6 0-3.5-0.4-1.9-0.4-4.1-1.1v-7.8h3.5q0.1 2.7 1.2 4 1.1 1.3 3.2 1.3 2 0 3.3-1.2 1.3-1.2 2.5-4.7l0.5-1.3-14.6-37.9h-3.6v-4.2h19.3v4.2h-4l8.6 22.1 7.9-22.1h-4.4v-4.2h12.6v4.2zm93.6-15.1l-13.5 48.2h-8.2l-10.7-38.2-10.7 38.2h-8.1l-13.5-48.2h-4.6v-4.3h22.4v4.3h-5.1l9.1 32.2 10.1-36.5h9l10.4 37.1 9.2-32.8h-5.6v-4.3h14.6v4.3zm33 25.3v18.7h4.8v4.2h-16v-4.7q-2.2 2.9-4.9 4.3-2.7 1.4-6.2 1.4-5.2 0-8-3-2.7-3.1-2.7-8.8 0-6.3 4-9.5 3.9-3.1 11.9-3.1h5.9v-2.2q0-4.5-1.9-6.7-1.9-2.2-6-2.2-3.4 0-5.2 1.6-1.8 1.5-2.5 5h-3.6v-8.1q3-1.2 6.2-1.8 3.2-0.6 6.8-0.6 9 0 13.2 3.8 4.2 3.7 4.2 11.7zm-11.2 11.2v-7.5h-4.2q-3.1 0-4.8 1.9-1.7 1.9-1.7 5.4 0 3.6 1.2 5.4 1.3 1.7 3.8 1.7 2.6 0 4.2-1.9 1.5-1.9 1.5-5zm52.7-21.4l-15 41.6q-1.5 4.1-3.6 5.8-2.2 1.7-5.8 1.7-1.6 0-3.5-0.4-1.9-0.4-4.1-1.1v-7.8h3.6q0 2.7 1.1 4 1.1 1.3 3.2 1.3 2.1 0 3.3-1.2 1.3-1.2 2.6-4.7l0.5-1.3-14.7-37.9h-3.6v-4.2h19.4v4.2h-4.1l8.6 22.1 8-22.1h-4.5v-4.2h12.6v4.2z"/>
	<path id="Learn Code The" class="s0" aria-label="Learn Code The"  d="m216.2 308h-41.2v-4.3h6.1v-43.9h-6.1v-4.3h24.4v4.3h-6.1v43.4h18.6v-8.3h4.3zm17-21.1h10.8q0-7.4-1.2-10.3-1.3-3-4.3-3-2.9 0-4.1 2.9-1.2 2.9-1.2 9.8zm23.1 4.1h-23.1v0.3q0 7.3 1.9 10.5 2 3.2 6.3 3.2 3.7 0 5.9-2.1 2.3-2.2 2.9-6.3h5.3q-1.4 6.4-5.5 9.4-4 3-11.3 3-8.7 0-13.4-5.1-4.6-5.2-4.6-14.6 0-9.3 4.7-14.5 4.8-5.2 13.3-5.2 8.4 0 12.8 5.4 4.5 5.5 4.8 16zm38.4-6v18.7h4.8v4.3h-16v-4.8q-2.2 3-5 4.4-2.7 1.4-6.1 1.4-5.2 0-8-3.1-2.7-3.1-2.7-8.8 0-6.3 3.9-9.4 4-3.2 12-3.2h5.9v-2.2q0-4.5-1.9-6.7-2-2.1-6-2.1-3.4 0-5.2 1.5-1.8 1.5-2.6 5h-3.6v-8q3.1-1.2 6.3-1.8 3.2-0.6 6.8-0.6 9 0 13.2 3.7 4.2 3.7 4.2 11.7zm-11.2 11.2v-7.5h-4.2q-3.1 0-4.8 1.9-1.7 1.9-1.7 5.5 0 3.5 1.2 5.3 1.2 1.7 3.7 1.7 2.6 0 4.2-1.9 1.6-1.9 1.6-5zm52.3-26v11.1h-3.6q-0.2-3-1.4-4.4-1.3-1.5-3.7-1.5-3.7 0-5.8 3.6-2.1 3.6-2.1 9.9v14.8h6.1v4.3h-22.1v-4.3h4.8v-28.9h-5.1v-4.2h16.3v6.6q1.6-3.9 4.3-5.7 2.7-1.9 6.7-1.9 1 0 2.4 0.1 1.4 0.2 3.2 0.5zm21.5 37.8h-20.1v-4.3h4.8v-28.9h-4.8v-4.2h16v5.3q2-3.4 4.6-4.9 2.6-1.4 6.6-1.4 5.6 0 8.5 3.7 2.9 3.7 2.9 10.9v19.5h4.8v4.3h-20.1v-4.3h4.1v-19.9q0-4.7-1.1-6.5-1.1-1.9-3.7-1.9-3.4 0-5 2.8-1.6 2.7-1.6 8.7v16.8h4.1zm89.7-15h6.3q-1.9 8.1-6.7 12.1-4.9 3.9-13 3.9-12 0-19-7.3-6.9-7.3-6.9-19.9 0-12.6 6.9-19.9 7-7.3 19-7.3 4.2 0 8.7 1.1 4.6 1.1 9.7 3.4v12.9h-4q-1.3-6.6-4.5-9.9-3.3-3.3-8.6-3.3-6.9 0-10.3 5.7-3.3 5.6-3.3 17.3 0 11.7 3.3 17.3 3.4 5.7 10.3 5.7 4.8 0 7.8-3 2.9-2.9 4.3-8.8zm30.7 12q3.5 0 4.9-3.3 1.5-3.4 1.5-12.4 0-9-1.5-12.3-1.4-3.4-4.9-3.4-3.6 0-5.1 3.4-1.4 3.4-1.4 12.3 0 8.9 1.4 12.3 1.5 3.4 5.1 3.4zm0 4q-8.9 0-14-5.2-5-5.3-5-14.5 0-9.2 5-14.5 5.1-5.2 14-5.2 8.9 0 13.9 5.2 5 5.3 5 14.5 0 9.2-5 14.5-5.1 5.2-13.9 5.2zm49.1-17.8v-3.7q0-6.6-1.5-9.5-1.5-2.9-4.9-2.9-3.4 0-4.8 3.1-1.4 3-1.4 11.1 0 8 1.4 11.1 1.4 3.1 4.8 3.1 3.4 0 4.9-2.9 1.5-2.9 1.5-9.4zm11.2-37.9v50.4h4.8v4.3h-16v-4.7q-1.4 2.9-3.8 4.3-2.4 1.4-6 1.4-7.1 0-11.2-5.3-4.1-5.2-4.1-14.4 0-9.2 4.1-14.5 4.1-5.2 11.2-5.2 3.6 0 6 1.5 2.4 1.4 3.8 4.3v-17.9h-4.8v-4.2zm22.1 33.6h10.8q0-7.4-1.2-10.3-1.2-3-4.2-3-2.9 0-4.1 2.9-1.3 2.9-1.3 9.8zm23.2 4.2h-23.2v0.2q0 7.3 2 10.5 2 3.2 6.3 3.2 3.6 0 5.9-2.1 2.2-2.2 2.9-6.3h5.2q-1.3 6.4-5.4 9.4-4 3-11.3 3-8.7 0-13.4-5.1-4.7-5.1-4.7-14.6 0-9.3 4.8-14.5 4.8-5.2 13.3-5.2 8.3 0 12.8 5.5 4.5 5.4 4.8 16zm61.2 16.9h-24.8v-4.3h6.3v-43.4h-13v8.3h-4.3v-13.1h46.8v13.1h-4.3v-8.3h-13v43.4h6.3zm34.8 0h-20.1v-4.2h4.8v-46.3h-5v-4.2h16.2v22.6q2-3.3 4.6-4.8 2.6-1.5 6.5-1.5 5.7 0 8.6 3.7 2.9 3.7 2.9 10.9v19.6h4.8v4.2h-20.1v-4.2h4.1v-19.9q0-4.8-1.1-6.6-1.1-1.8-3.8-1.8-3.4 0-4.9 2.7-1.6 2.8-1.6 8.8v16.8h4.1zm39.8-21.1h10.8q0-7.4-1.2-10.4-1.2-3-4.2-3-2.9 0-4.1 3-1.3 2.9-1.3 9.7zm23.2 4.2h-23.2v0.3q0 7.2 2 10.5 2 3.2 6.3 3.2 3.6 0 5.9-2.2 2.2-2.1 2.9-6.2h5.2q-1.3 6.4-5.4 9.4-4 2.9-11.3 2.9-8.7 0-13.4-5.1-4.7-5.1-4.7-14.6 0-9.3 4.8-14.5 4.8-5.2 13.3-5.2 8.3 0 12.8 5.5 4.5 5.5 4.8 16z"/>
</svg>